<?xml version="1.0" encoding="utf-8"?>
<!-- Generator: Adobe Illustrator 26.0.1, SVG Export Plug-In . SVG Version: 6.00 Build 0)  -->
<svg version="1.1" id="Layer_1" xmlns="http://www.w3.org/2000/svg" xmlns:xlink="http://www.w3.org/1999/xlink" x="0px" y="0px"
	 viewBox="0 0 357.6 331.8" style="enable-background:new 0 0 357.6 331.8;" xml:space="preserve">
<style type="text/css">
	.st0{fill:#FFFFFF;}
</style>
<g>
	<path class="st0" d="M357.6,169.4c-2.7,5.9-8.1,8.5-13.6,11C236,230.2,128.1,280,20.2,329.9c-5.5,2.5-10.7,3.1-15.6-1
		c-5.2-4.3-6-11.5-2-17.3c3.1-4.4,6.4-8.6,9.6-12.9C44.6,255.5,77,212.2,109.5,169c1.7-2.3,1.9-3.7,0.1-6.1
		C74.4,116.2,39.3,69.4,4.2,22.6c-2.6-3.4-4.7-7-4-11.5C1.7,2,10.2-2.5,18.9,1.4c13.3,6,26.5,12.2,39.8,18.4
		c96.3,44.5,192.7,89,289.1,133.3c4.7,2.2,7.9,5.3,9.8,10C357.6,165.2,357.6,167.3,357.6,169.4z"/>
</g>
</svg>
