<?xml version="1.0" encoding="utf-8"?>
<!-- Generator: Adobe Illustrator 26.0.1, SVG Export Plug-In . SVG Version: 6.00 Build 0)  -->
<svg version="1.1" id="Layer_1" xmlns="http://www.w3.org/2000/svg" xmlns:xlink="http://www.w3.org/1999/xlink" x="0px" y="0px"
	 viewBox="0 0 62.5 57.9" style="enable-background:new 0 0 62.5 57.9;" xml:space="preserve">
<style type="text/css">
	.st0{fill:#1A70FE;}
	.st1{opacity:0.9;fill:#2B8DFE;}
	.st2{fill:#FCFFFF;}
	.st3{fill:#55B1F7;}
	.st4{opacity:0.6;}
	.st5{opacity:0.9;}
	.st6{fill:#2B8DFE;}
</style>
<g>
	<path class="st0" d="M55.1,21.3v23.5c0,2.5-2.1,4.6-4.6,4.6H9.2c-2.5,0-4.6-2.1-4.6-4.6V21.3c0-2.5,2.1-4.6,4.6-4.6h41.3
		c1,0,1.9,0.3,2.7,0.9c0.3,0.2,0.6,0.5,0.9,0.8c0.3,0.4,0.6,0.8,0.7,1.3c0.2,0.5,0.3,0.9,0.3,1.5C55.1,21.3,55.1,21.3,55.1,21.3z"/>
	<circle class="st1" cx="28.6" cy="33.1" r="8.7"/>
	<circle class="st2" cx="38.4" cy="33.1" r="5.4"/>
	<path class="st3" d="M4.6,44.1c0-3.7,3-6.8,6.8-6.8h0v-26h0c-3.7,0-6.8,3-6.8,6.8V44.1z"/>
	<g class="st4">
		<path d="M57.8,14.2c-0.1,0.5-0.4,0.9-0.8,1.3l-0.9,0.9c-0.3,0.3-0.6,0.6-0.9,0.9l-1.1,1.1c0.3,0.4,0.6,0.8,0.7,1.3
			c0.2,0.5,0.3,0.9,0.3,1.5c-2.8,2.8-5.7,5.7-8.5,8.5c-0.3,0.3-0.7,0.6-1,0.8c-0.4,0.2-0.8,0.4-1.2,0.6c-0.3,0.1-0.5,0.2-0.8,0.2
			c-1.9,0.6-3.8,1.3-5.7,1.9c-0.1,0.1-0.3,0.1-0.4,0.1c0,0-0.1,0-0.1,0c-0.4-0.1-0.6-0.4-0.5-0.8c0.1-0.3,0.2-0.7,0.3-1
			c0.1-0.2,0.1-0.4,0.2-0.6c0-0.1,0-0.1,0.1-0.2c0.3-0.8,0.5-1.6,0.8-2.4c0.1-0.2,0.1-0.4,0.2-0.6c0.3-1,0.6-1.9,1-2.9
			c0-0.1,0.1-0.2,0.1-0.3c0-0.1,0.1-0.1,0.1-0.2c0,0,0.1-0.1,0.1-0.1c0.2-0.2,0.3-0.3,0.5-0.5c2.3-2.3,4.7-4.7,7-7
			c1.3-1.3,2.6-2.6,3.9-3.9c0.3-0.3,0.6-0.6,0.9-0.9c0.1-0.1,0.2-0.3,0.4-0.4c0.6-0.6,1.4-0.9,2.2-0.9h0.1c0.8,0,1.5,0.3,2.1,0.9
			c0.3,0.3,0.6,0.6,0.9,0.9v0C58,13.1,58,13.7,57.8,14.2z"/>
		<path d="M54.1,18.5c0.3,0.4,0.6,0.8,0.7,1.3c-1.7,1.7-3.4,3.4-5.1,5.1c-1.4,1.4-2.8,2.8-4.2,4.3c-0.1,0.1-0.2,0.1-0.3,0l-0.9-0.9
			c-1-1.1-2.1-2.1-3.2-3.2c-0.1-0.1-0.1-0.2,0-0.3c0,0,0.1-0.1,0.1-0.1c2.6-2.6,5.3-5.3,7.9-7.9l2.6-2.6c0,0,0.1-0.1,0.1-0.1
			c0.1,0,0.1,0.1,0.2,0.1c0.8,0.8,1.6,1.6,2.4,2.4c0.3,0.3,0.6,0.6,0.9,0.9L54.1,18.5z"/>
		<path d="M57.8,14.2c-0.1,0.5-0.4,0.9-0.8,1.3l-0.9,0.9c-1.1-1.1-2.2-2.2-3.3-3.2c-0.1-0.1-0.1-0.1,0-0.2c0.1-0.1,0.1-0.1,0.2-0.2
			c0.2-0.2,0.3-0.3,0.5-0.5c0.7-0.7,1.8-0.7,2.5,0c0.2,0.2,0.5,0.4,0.7,0.7C57,13.5,57.4,13.8,57.8,14.2
			C57.8,14.2,57.8,14.2,57.8,14.2z"/>
		<path class="st5" d="M36.2,34c1.1-3.2,2.1-6.4,3.2-9.5c2.1,2.1,4.2,4.2,6.3,6.3C42.6,31.8,39.5,32.9,36.2,34z"/>
	</g>
	<g>
		<g>
			<path class="st3" d="M57.8,14.2c-0.1,0.5-0.4,0.9-0.8,1.3l-0.9,0.9c-0.3,0.3-0.6,0.6-0.9,0.9l-1.1,1.1c-3,3-6.1,6.1-9.1,9.1
				c-0.2,0.2-0.5,0.4-0.7,0.6c-0.1,0.1-0.2,0.1-0.3,0.2c-0.1,0.1-0.2,0.1-0.3,0.2c-0.3,0.1-0.6,0.3-0.9,0.4
				c-0.2,0.1-0.4,0.1-0.6,0.2c-1.6,0.5-3.1,1-4.7,1.6c-0.1,0-0.1,0-0.2,0.1c-0.1,0-0.2,0.1-0.2,0.1c-0.3,0.1-0.5,0.2-0.8,0.3
				c-0.1,0.1-0.3,0.1-0.4,0.1c-0.4,0-0.7-0.4-0.6-0.8c0.2-0.7,0.5-1.4,0.7-2.1l0,0c0.2-0.7,0.5-1.4,0.7-2.2c0.4-1.2,0.8-2.3,1.2-3.5
				c0-0.1,0.1-0.2,0.1-0.3c0-0.1,0.1-0.1,0.1-0.2c1.8-1.8,3.7-3.7,5.5-5.5c2.4-2.4,4.9-4.9,7.3-7.3c0.6-0.6,1.4-0.9,2.2-0.9
				c0.8,0,1.6,0.3,2.2,0.9c0.6,0.6,1.1,1.1,1.7,1.7c0.4,0.4,0.7,0.8,0.8,1.3v0C58,13.1,58,13.7,57.8,14.2z"/>
			<path class="st3" d="M50.1,11.9c0.1,0,0.1,0,0.2,0.1c1.4,1.4,2.8,2.8,4.2,4.1c0.1,0.1,0,0.2,0,0.2c-2.1,2.1-4.2,4.2-6.3,6.3
				c-1.4,1.4-2.8,2.8-4.2,4.3c-0.1,0.1-0.2,0.1-0.3,0c-1.3-1.3-2.7-2.7-4-4c-0.1-0.1-0.1-0.2,0-0.3c3.5-3.5,7.1-7.1,10.6-10.6
				C50.1,12,50.1,11.9,50.1,11.9z"/>
			<path class="st3" d="M56.7,13.4c0,0.5-0.2,0.9-0.5,1.2c-0.2,0.2-0.4,0.4-0.6,0.6c-0.1,0.1-0.1,0.1-0.2,0
				c-1.4-1.4-2.7-2.8-4.1-4.1c-0.1-0.1-0.1-0.1,0-0.2c0.2-0.2,0.4-0.4,0.6-0.6c0.7-0.7,1.8-0.7,2.5,0c0.6,0.6,1.2,1.2,1.8,1.8
				C56.5,12.4,56.7,12.9,56.7,13.4z"/>
			<g class="st5">
				<path class="st6" d="M34.6,31.8c1.1-3.2,2.1-6.4,3.2-9.5c2.1,2.1,4.2,4.2,6.3,6.3C41,29.7,37.9,30.8,34.6,31.8z"/>
			</g>
		</g>
	</g>
</g>
</svg>
