<?xml version="1.0" encoding="utf-8"?>
<!-- Generator: Adobe Illustrator 26.0.1, SVG Export Plug-In . SVG Version: 6.00 Build 0)  -->
<svg version="1.1" id="Layer_1" xmlns="http://www.w3.org/2000/svg" xmlns:xlink="http://www.w3.org/1999/xlink" x="0px" y="0px"
	 viewBox="0 0 62.5 57.9" style="enable-background:new 0 0 62.5 57.9;" xml:space="preserve">
<style type="text/css">
	.st0{fill:#55B1F7;}
	.st1{fill:#1A70FE;}
	.st2{fill:none;}
	.st3{opacity:0.6;enable-background:new    ;}
	.st4{fill:#FCFFFE;}
	.st5{fill:#2B8DFE;}
</style>
<g>
	<g>
		<g>
			<path class="st0" d="M31,36.1L17.5,49.6c-3,0-6,0-9.1,0c-2.2,0-3.9-0.9-5-2.7c-0.5-0.8-0.6-1.6-0.6-2.5v-25c0-0.1-0.1-0.3,0-0.4
				v0.2c0,0,0-0.1,0.1-0.1c0.2-0.2,0.4,0.1,0.6,0.2c7.5,5,14.9,9.9,22.4,14.9c1.4,1,2.9,1.7,4.6,1.8C30.7,36,30.8,36.1,31,36.1z"/>
			<path class="st1" d="M59.6,18.7V45c-0.6,3-2.6,4.6-5.7,4.6H17.5L31,36.1h-0.5c-1.7-0.2-3.2-0.9-4.6-1.8
				c-7.4-5-14.9-9.9-22.4-14.9c-0.2-0.1-0.4-0.4-0.6-0.2c0,0-0.1,0-0.1,0.1v-0.4c0,0,0-0.1,0.1-0.1c0.2-0.1,0.4,0.1,0.6,0.2
				c7.5,5,15,10,22.4,14.9c1.4,0.9,2.9,1.7,4.6,1.8h0.7c0.1,0,0.1,0,0.2,0c1.5,0,2.9-0.4,4.2-1.3c2.2-1.3,4.3-2.8,6.4-4.2
				c5.6-3.8,11.3-7.5,17-11.3C59.2,18.8,59.3,18.6,59.6,18.7z"/>
		</g>
		<polyline class="st2" points="37.6,29.5 36.9,30.2 31.3,35.8 31,36.1 		"/>
	</g>
	<path class="st3" d="M59.6,15.5v5.9c-0.3-0.2-0.4,0.1-0.6,0.2c-5.6,3.8-11.3,7.5-17,11.3c-2.1,1.4-4.2,2.9-6.4,4.2
		c-1.4,0.9-3,1.3-4.6,1.2h-0.5c-0.2,0-0.4-0.1-0.6-0.1c-1.5-0.3-2.8-0.9-4-1.7c-7.4-5-14.9-9.9-22.4-14.9c-0.2-0.1-0.4-0.4-0.6-0.2
		c0,0-0.1,0-0.1,0.1v-6.8c0,0.1,0,0.2,0,0.3c0.1,1.6,1,3,2.5,4c7.6,5.1,15.2,10.1,22.8,15.2c1.8,1.2,3.5,1.4,5.3,0.5
		c0.3-0.1,0.6-0.3,0.9-0.5c0.8-0.6,1.7-1.1,2.5-1.7c0.8-0.6,1.7-1.1,2.5-1.7c6-3.9,11.9-7.8,17.8-11.8c1-0.6,1.7-1.4,2.1-2.4
		c0,0,0,0,0,0c0.1-0.3,0.2-0.6,0.3-1C59.5,15.5,59.6,15.5,59.6,15.5z"/>
	<path class="st4" d="M59.6,19.1c-0.2-0.1-0.3,0.2-0.5,0.2c-5.6,3.8-11.3,7.5-17,11.3c-2.1,1.4-4.2,2.9-6.4,4.2
		c-1.4,0.9-3,1.3-4.6,1.2h-0.5c-1.7-0.2-3.2-0.9-4.6-1.8c-7.4-5-14.9-9.9-22.4-14.9c-0.2-0.1-0.4-0.4-0.6-0.2c0,0,0,0-0.1,0
		c0,0,0,0,0,0c0,0,0,0,0,0.1v-5.5c0,0.1,0,0.2,0,0.3c0,0.4,0.1,0.8,0.3,1c0.4,0.6,1.1,0.9,2.2,1.6c7.6,5.1,15.2,10.1,22.8,15.2
		c2.1,1.4,4.1,1.4,6.2,0c0.8-0.6,1.7-1.1,2.5-1.7c0,0,0.1-0.1,0.1-0.1c0.8-0.6,1.6-1,2.4-1.6c5.9-3.9,11.8-7.9,17.7-11.8
		c1.3-0.8,2.1-1.9,2.4-3.4c0-0.1,0.1-0.1,0.1-0.1V19.1z"/>
	<path class="st5" d="M59.6,12.6v1.9c-0.1,0.4-0.2,0.7-0.4,1.1c0,0,0,0,0,0c-0.5,1-1.1,1.7-2.1,2.3c-5.9,3.9-11.8,7.8-17.7,11.8
		c-0.6,0.4-1.2,0.8-1.8,1.2c-1.1,0.7-2.2,1.4-3.2,2.2c-0.3,0.2-0.6,0.4-0.9,0.5c-1.8,0.9-3.6,0.7-5.3-0.5
		C20.5,28,12.9,22.9,5.4,17.9c-1.1-0.8-1.9-1.8-2.3-2.8c-0.2-0.5-0.2-1-0.2-1.5C2.9,13.3,3,13,3,12.7c0.1-0.2,0.1-0.4,0.2-0.7
		c0.6-2.2,2.7-3.7,5.1-3.7h45.9c1.7,0,3.2,0.7,4.2,1.8c0.4,0.5,0.8,1.1,1,1.8C59.5,12.1,59.5,12.4,59.6,12.6z"/>
</g>
<polyline class="st2" points="59.6,6 59.6,12.6 59.6,13.2 59.6,14.5 59.6,18.7 59.6,19 59.6,19.1 59.6,20.4 59.6,45 59.6,52.3 "/>
</svg>
