<?xml version="1.0" encoding="utf-8"?>
<!-- Generator: Adobe Illustrator 26.0.1, SVG Export Plug-In . SVG Version: 6.00 Build 0)  -->
<svg version="1.1" id="Layer_1" xmlns="http://www.w3.org/2000/svg" xmlns:xlink="http://www.w3.org/1999/xlink" x="0px" y="0px"
	 viewBox="0 0 63.5 58.1" style="enable-background:new 0 0 63.5 58.1;" xml:space="preserve">
<style type="text/css">
	.st0{fill:#55B1F7;}
	.st1{opacity:0.9;fill:#FCFFFF;enable-background:new    ;}
	.st2{opacity:0.9;}
	.st3{fill:#2B8DFE;}
	.st4{fill:#1A70FE;}
</style>
<g>
	<g>
		<g>
			<path class="st0" d="M42.2,4.2l-6.8,6.9c-1.1-0.5-2.4-0.8-3.7-0.7c-5.2,0-9.4,4.3-9.3,9.4c0,1.3,0.3,2.5,0.7,3.6l-6.9,6.9
				c-0.3-0.4-0.5-0.9-0.7-1.3c-1.9-3.4-2.7-7.1-2.3-11.1c0.5-4.6,2.4-8.6,5.8-11.8c2.5-2.4,5.5-4,8.8-4.7c4.7-1,9.2-0.3,13.3,2.1
				C41.5,3.7,41.9,4,42.2,4.2z"/>
			<path class="st1" d="M41,19.6c0,5.1-4.1,9.4-9.3,9.4c-3.9,0.1-7.3-2.3-8.7-5.7c-0.5-1.1-0.7-2.3-0.7-3.6
				c-0.1-5.1,4.1-9.4,9.3-9.4c1.3,0,2.5,0.3,3.7,0.7C38.7,12.5,41,15.8,41,19.6z"/>
			<g class="st2">
				<path class="st3" d="M50.2,17.5L23.7,44.1c-2.5-4.6-5.1-9.2-7.6-13.8l6.9-6.9c1.4,3.4,4.8,5.8,8.7,5.7c5.2-0.1,9.3-4.3,9.3-9.4
					c0-3.9-2.4-7.2-5.7-8.6l6.9-6.9c3,2,5.2,4.7,6.6,8C49.5,14,50,15.7,50.2,17.5z"/>
			</g>
			<path class="st4" d="M32.4,56.8c-0.1,0.1-0.3,0.2-0.4,0.3h-0.7c-0.4-0.2-0.7-0.6-0.9-1c-2.2-4-4.4-8-6.7-12l26.5-26.6
				c0.2,1.6,0.2,3.4-0.1,5.1c-0.4,2.4-1.2,4.6-2.4,6.7c-4.9,8.9-9.9,17.8-14.8,26.7C32.8,56.3,32.6,56.6,32.4,56.8z"/>
		</g>
	</g>
</g>
</svg>
