<?xml version="1.0" encoding="utf-8"?>
<!-- Generator: Adobe Illustrator 26.0.1, SVG Export Plug-In . SVG Version: 6.00 Build 0)  -->
<svg version="1.1" id="Layer_1" xmlns="http://www.w3.org/2000/svg" xmlns:xlink="http://www.w3.org/1999/xlink" x="0px" y="0px"
	 viewBox="0 0 507.3 119.6" style="enable-background:new 0 0 507.3 119.6;" xml:space="preserve">
<style type="text/css">
	.st0{fill:#065293;}
	.st1{fill:#FFFFFF;}
</style>
<g>
	<g>
		<g>
			<g>
				<path class="st0" d="M129,49.3v21.1c0,2-1,3.8-2.4,4.9c-0.1,0-0.1,0.1-0.2,0.1c-0.9,0.6-1.9,1-3.1,1.1c-0.1,0-0.1,0-0.2,0
					s-0.2,0-0.3,0H99.9v23c0,0.3,0,0.6-0.1,0.9c0,0,0,0,0,0.1c-0.5,2.9-3,5.2-6.1,5.2H72.6c-2.8,0-5.3-1.9-6-4.6l0,0
					c-0.1-0.5-0.2-1-0.2-1.6v-23H43.5c-3.4,0-6.2-2.7-6.2-6.2v-21c0-0.1,0-0.2,0-0.3c0-0.2,0-0.4,0.1-0.7c0.5-3,3-5.3,6.1-5.3h22.9
					V20.1c0-1.4,0.5-2.7,1.2-3.7l0.1-0.1c0.2-0.2,0.3-0.4,0.5-0.6l0,0c1.1-1.1,2.6-1.8,4.3-1.8h21.1c2.3,0,4.4,1.3,5.4,3.2l0,0l0,0
					c0.5,0.9,0.7,1.9,0.7,2.9v22.9h22.9c0.4,0,0.7,0,1,0.1h0.1C126.8,43.7,129,46.2,129,49.3z"/>
			</g>
			<g>
				<g>
					<path class="st1" d="M100.7,73.1l-0.2,0.1c-0.7,0.4-1.5,0.9-2.2,1.4c-1.1,0.7-2.2,1.4-3.4,2c-0.8,0.5-1.6,0.8-2.5,0.9
						c-0.1,0-0.1,0-0.2,0c-0.2,0.1-0.6,0-1-0.1c0.4,0.2,0.7,0.3,1.1,0.3c0,0,0.1,0,0.2,0c0.8-0.3,1.6-0.7,2.4-1
						c1.2-0.6,2.3-1.4,3.3-2c0.7-0.5,1.5-0.9,2.2-1.4l0.2-0.1c0.6-0.3,1.1-0.7,1.5-1.1C101.7,72.6,101.2,72.9,100.7,73.1z M102.9,70
						c-0.1-1-0.6-2-1.7-3.1c-0.3-0.2-0.4-0.5-0.7-0.7c-0.6-0.6-1.1-1.2-1.6-1.8c-0.2-0.2-0.3-0.5-0.5-0.7c-0.6-0.9-1.1-1.9-2.2-2.2
						s-2,0.4-2.9,1c-0.6,0.5-1.4,0.9-2.1,1.1c-0.6,0.2-1.2,0.1-1.8,0c-0.3,0-0.4-0.1-0.7-0.1c-0.7-0.1-1.7-0.1-2.3,0.7
						c-0.5,0.7-0.4,1.7-0.2,2.6c0.4,1.7,0.7,3.3,1.7,4.8c0.3,0.4,0.5,0.7,0.7,1c0.5,0.7,1.1,1.5,1.3,2.4c0.1,0.2,0.1,0.4,0.1,0.6
						c0.1,0.4,0.1,0.7,0.3,1.1c0.1,0.1,0.2,0.3,0.3,0.4c-0.1-0.1-0.1-0.2-0.2-0.3c-0.1-0.4-0.2-0.7-0.2-1.1c0-0.2-0.1-0.4-0.1-0.5
						c-0.3-0.9-0.8-1.7-1.4-2.5c-0.3-0.4-0.6-0.6-0.7-1c-0.9-1.4-1.3-3-1.7-4.7c-0.2-0.8-0.4-1.7,0.1-2.4c0.6-0.7,1.6-0.7,2.2-0.7
						c0.3,0,0.5,0.1,0.7,0.1c0.6,0,1.1,0.1,1.7,0c0.8-0.2,1.6-0.6,2.2-1.1c0.9-0.6,1.8-1.3,2.8-1c1,0.2,1.6,1.2,2.1,2.1
						c0.2,0.3,0.3,0.6,0.5,0.8c0.5,0.6,1.1,1.3,1.6,1.8c0.3,0.2,0.5,0.5,0.7,0.7c1,1.1,1.6,2,1.7,3c0.1,0.7-0.1,1.2-0.4,1.6
						C102.8,71.4,102.9,70.8,102.9,70z"/>
					<path class="st1" d="M92.6,77.9h-0.2c-0.5,0-0.8-0.1-1.2-0.3l-2-1l1.1,0.3v-0.1c-0.2-0.3-0.2-0.6-0.2-0.8c0-0.1,0-0.2-0.1-0.3
						c0-0.2,0-0.4-0.1-0.5c-0.2-0.9-0.7-1.6-1.2-2.2l-0.1-0.1l-0.1-0.1l-0.1-0.1c-0.2-0.2-0.3-0.4-0.4-0.7l-0.1-0.1
						c-0.9-1.4-1.3-2.9-1.6-4.4L86.2,67c-0.2-0.8-0.3-2,0.2-2.8c0.5-0.7,1.4-1,2.5-0.8c0.1,0,0.3,0,0.4,0.1c0.1,0,0.2,0,0.3,0
						c0.6,0.1,1.2,0.2,1.7,0c0.7-0.2,1.5-0.6,2-1.1l0.2-0.2c0.9-0.6,1.8-1.2,2.9-0.9c1,0.3,1.6,1.1,2.1,1.9c0.1,0.1,0.2,0.2,0.2,0.4
						c0.1,0.1,0.2,0.2,0.3,0.4c0.1,0.1,0.1,0.2,0.2,0.3c0.5,0.6,1,1.2,1.6,1.8c0.1,0.1,0.3,0.2,0.4,0.4c0.1,0.1,0.2,0.2,0.3,0.3
						c1.1,1.1,1.7,2.2,1.8,3.3l0,0c0,0.9-0.1,1.5-0.8,2.1l-0.1,0.1l0.1,0.1c-0.3,0.4-0.6,0.7-1.1,0.9c-0.1,0.1-0.2,0.1-0.4,0.2
						l-0.3,0l0.1-0.1l0,0l-0.3,0.1c-0.3,0.2-0.7,0.5-1.1,0.7s-0.7,0.4-1.1,0.7c-0.4,0.2-0.7,0.4-1.1,0.7c-0.7,0.5-1.5,1-2.3,1.4
						c-0.2,0.1-0.4,0.2-0.6,0.3c-0.2,0.1-0.3,0.2-0.5,0.2l0,0C93.4,77.6,93,77.8,92.6,77.9L92.6,77.9z M90.7,77l0.6,0.1
						c0.3,0.1,0.7,0.2,0.8,0.1h0.1h0.2c0.4,0,0.8-0.1,1.3-0.3c0.2-0.1,0.3-0.1,0.5-0.2s0.4-0.2,0.6-0.3c1.2-0.6,2.3-1.3,3.4-2
						c0.6-0.5,1.4-1,2.2-1.4l0.2-0.1c0.1,0,0.2-0.1,0.4-0.2c0.3-0.2,0.5-0.4,0.8-0.6l0.3-0.4c0.3-0.4,0.4-0.9,0.4-1.4
						c-0.2-0.8-0.7-1.6-1.8-2.8c-0.1-0.1-0.1-0.1-0.2-0.2c-0.1-0.2-0.3-0.3-0.5-0.4c-0.5-0.4-1-1-1.7-1.8c-0.1-0.1-0.2-0.3-0.3-0.5
						c-0.1-0.1-0.1-0.2-0.2-0.3c-0.5-1-1.1-1.8-1.9-2s-1.6,0.3-2.4,0.8l-0.2,0.2c-0.6,0.5-1.4,0.9-2.3,1.1c-0.4,0.1-0.8,0.1-1.2,0
						c-0.3,0-0.6,0-0.9-0.1c-0.1,0-0.2-0.1-0.4-0.1c-0.6,0-1.5,0-2,0.6c-0.4,0.6-0.3,1.3,0,2.2c0.4,1.8,0.8,3.3,1.7,4.6v0.1l0,0
						c0.2,0.3,0.3,0.5,0.5,0.7c0.1,0.1,0.1,0.1,0.2,0.2c0.7,1,1.2,1.8,1.4,2.6v0.1v0.1c0,0.1,0.1,0.2,0.1,0.4c0,0.3,0.1,0.5,0.1,0.8
						v0.1c0,0.1,0.1,0.1,0.1,0.2C90.7,76.9,90.8,76.9,90.7,77C90.8,76.9,90.8,76.9,90.7,77L90.7,77z M101.2,67.2
						c0.3,0.3,0.6,0.6,0.8,0.9C101.7,67.9,101.5,67.5,101.2,67.2z M100.3,66.4C100.4,66.4,100.4,66.4,100.3,66.4
						C100.4,66.4,100.4,66.4,100.3,66.4C100.4,66.4,100.4,66.4,100.3,66.4C100.4,66.4,100.4,66.4,100.3,66.4z"/>
				</g>
				<g>
					<path class="st1" d="M109.3,67c-0.4-2.6-2.1-4.6-3.3-5.9l-1.6-1.6c-1-0.9-2-1.9-2.8-2.9c-0.4-0.5-0.7-1-1.1-1.6
						c-0.6-0.8-1.2-1.6-1.8-2.4c-1.4-1.5-3-2.2-4.8-2.2c-2.6,0.1-4.7,1.9-6.7,3.7c-0.7,0.7-1.4,1.2-2.1,1.7
						c-0.2,0.2-0.3,0.3-0.5,0.4c-1,0.7-2.1,1.2-3.2,1.6l-0.6,0.3c-1.5,0.6-3,1.4-4.3,2.4c-1.2,1.1-1.8,2.2-2.3,3.2
						c-0.4,0.8-0.6,1.7-0.8,2.5c-0.4,1.7-0.3,3.7,0.3,5.6c0.2,0.3,0.3,0.6,0.4,0.9c0.2,0.5,0.5,1,0.7,1.5c0.6,1.3,1.2,2.5,1.2,3.8
						c0,0.5-0.1,0.9-0.2,1.5c-0.1,0.5-0.2,0.9-0.2,1.4c0,1.3,0.3,2.5,0.9,3.6c0.6,0.9,1.4,1.8,2.6,2.7c1.5,1.1,3.3,2.2,5.4,2.5
						c0.3,0.1,0.6,0.1,1,0c2.2,0,4.1-1,5.7-2c1.1-0.6,2.1-1.5,3.1-2.2c1.2-0.9,2.4-1.8,3.7-2.6c0.3-0.1,0.6-0.3,0.8-0.5
						c0.3-0.2,0.6-0.4,1-0.6V80c-0.5,0.3-1,0.6-1.5,0.9c-0.4,0.2-0.6,0.4-0.9,0.6c-1.4,0.8-2.8,1.8-3.9,2.7c-1,0.8-2,1.6-3,2.2
						c-1.6,1-3.4,2-5.7,1.7c-1.8-0.2-3.5-1.2-4.8-2.2c-1.1-0.8-1.8-1.6-2.3-2.4S77,81.7,77,80.8c0-0.5,0-0.8,0.1-1.3
						c0.1-0.6,0.2-1.1,0.2-1.7c0-1.6-0.6-3-1.3-4.4c-0.3-0.6-0.5-1-0.6-1.5c-0.1-0.3-0.2-0.5-0.3-0.8c-0.5-1.7-0.6-3.4-0.3-4.8
						c0.1-0.7,0.4-1.4,0.7-2.2c0.5-0.9,0.9-1.8,1.9-2.6c1.1-0.8,2.6-1.5,3.9-2.1l0.6-0.3c1.2-0.5,2.4-1,3.5-1.7
						c0.2-0.1,0.4-0.3,0.6-0.4c0.7-0.6,1.5-1.2,2.2-1.8c1.8-1.6,3.7-3.3,5.8-3.4c0,0,0.1,0,0.2-0.3c1.3,0,2.5,0.6,3.6,1.7
						c0.6,0.6,1.1,1.5,1.7,2.2c0.4,0.6,0.7,1.1,1.2,1.7c0.9,1.2,1.9,2.2,2.9,3.1c0.5,0.5,1.1,1,1.6,1.6c1.7,1.7,2.7,3.4,2.9,5.1
						c0.6,3.8-1.7,6.9-4.3,9.6h2C108,74,110,70.7,109.3,67z"/>
				</g>
				<g>
					<path class="st1" d="M99.6,40.6c-1.6-1.5-4.2-3.2-7.6-2.5c-4.4,0.8-8.2,5.4-11.4,9.4l-0.2,0.3c-0.2,0.3-0.4,0.5-0.6,0.7
						c-1.7,2-3.2,3.7-4.9,5.1c-1.9,1.7-4,3.2-5.9,4.2c-0.9,0.5-1.7,0.8-2.5,1.2c-0.9,0.4-1.7,0.7-2.6,1.2c-1.3,0.7-2.2,1.5-3,2.5
						c-1.8,2.4-1.9,5.6-1.8,7.2c0,0.5,0.1,0.9,0.1,1.3c0.1,0.9,0.4,1.8,0.6,2.7s0.4,1.7,0.5,2.6h0.1c-0.1-0.9-0.3-1.7-0.5-2.5
						c-0.2-0.9-0.4-1.8-0.6-2.7c0-0.4-0.1-0.9-0.1-1.3c-0.1-1.7,0-4.8,1.9-7.2c0.7-1,1.7-1.8,2.9-2.5c0.8-0.4,1.7-0.8,2.5-1.2
						c0.8-0.3,1.6-0.7,2.5-1.2c1.9-1,4-2.5,5.9-4.2c1.6-1.4,3.2-3.1,4.9-5.1c0.2-0.2,0.4-0.5,0.6-0.7l0.2-0.3c3.3-4,7-8.6,11.4-9.4
						c0.5-0.1,1-0.1,1.5-0.2C96.2,38,98.3,39.4,99.6,40.6c0.1,0.1,0.2,0.2,0.3,0.3v-0.1C99.8,40.8,99.7,40.7,99.6,40.6z M116,61
						c-0.6-3.5-2.8-6-4.6-7.8c-0.8-0.8-1.8-1.7-2.6-2.5c-1.4-1.2-2.8-2.5-4-3.8c-0.7-0.8-1.4-1.7-2-2.6c-0.3-0.4-0.6-0.8-1-1.3h-0.1
						c0.3,0.4,0.7,0.9,1,1.3c0.6,0.9,1.3,1.8,2,2.6c1.2,1.4,2.6,2.6,4,3.8c0.9,0.8,1.8,1.6,2.6,2.5C113.1,55.1,115.2,57.5,116,61
						c0.6,3,0,6.4-1.5,10.1c-0.7,1.7-1.7,3.5-2.8,5.4h0.1c1.1-1.8,2.1-3.6,2.8-5.3C116.1,67.4,116.5,64,116,61z M99.8,88.8
						c-0.5,0.3-1,0.6-1.5,0.9c-2.6,1.5-4.9,3.5-7.1,5.3l-4.5,3.6c-2.7,1.9-6.1,3.8-10.7,3c-3.6-0.7-6.5-2.7-9.5-5.1v0.1
						c3.1,2.4,5.9,4.3,9.5,5c0.7,0.1,1.5,0.2,2.3,0.2c1.1,0,2.4-0.2,3.5-0.6c1.6-0.5,3.2-1.3,5-2.6c1.5-1.1,3-2.3,4.5-3.6
						c2.2-1.9,4.5-3.8,7.1-5.3C98.8,89.5,99.3,89.2,99.8,88.8C99.9,88.9,99.9,88.9,99.8,88.8L99.8,88.8
						C99.9,88.8,99.8,88.8,99.8,88.8z"/>
					<path class="st1" d="M78.3,102.3c-0.3,0-0.5,0-0.8,0c-0.5,0-1-0.1-1.6-0.2c-0.2,0-0.4-0.1-0.6-0.1c-3.6-0.8-6.4-2.8-9.1-5
						L66,96.8v-1.3l0.8,0.5c3.1,2.5,5.7,4.2,8.9,4.9l0,0l0,0l0,0c0.1,0,0.2,0,0.3,0.1l0,0l0,0l0,0l0,0l0,0l0,0l0,0
						c0.5,0.1,0.9,0.1,1.4,0.2c3.7,0.2,6.5-1.4,8.9-3.1l5.4-4.3c2-1.6,4-3.3,6.3-4.6l0.9-0.6l-0.4-0.4h1l0.2-0.2l0.4,0.4l-0.4,0.4
						l0.2,0.3c-0.6,0.5-1.1,0.8-1.5,1c-2.6,1.5-5,3.5-7,5.2c-1.5,1.3-3,2.5-4.5,3.6c-1.8,1.3-3.4,2.1-5.1,2.7
						C80.9,102.1,79.5,102.3,78.3,102.3z M112.1,77h-1.2l0.4-0.8c1.2-2.1,2.1-3.7,2.8-5.3c0.8-2,1.3-3.8,1.6-5.5
						c0.2-1.5,0.1-2.9-0.1-4.3c-0.8-3.3-2.8-5.6-4.6-7.6c-0.8-0.9-1.7-1.7-2.6-2.5c-1.4-1.2-2.8-2.4-4-3.8c-0.7-0.9-1.4-1.8-2-2.6
						c-0.1-0.2-0.3-0.4-0.5-0.6c-0.2-0.2-0.3-0.4-0.5-0.6l-0.7-0.9h1.3l0.2,0.2c0.4,0.5,0.7,0.9,1,1.3c0.6,0.9,1.3,1.8,2,2.6
						c1.1,1.2,2.4,2.4,3.9,3.8c0.4,0.4,0.9,0.8,1.3,1.3c0.5,0.4,0.9,0.9,1.3,1.3c2,2,4.1,4.5,4.7,8.1l0,0c0.3,1.4,0.3,2.9,0.1,4.6
						c-0.2,1.9-0.7,3.9-1.5,5.9C114.4,73.1,113.5,74.8,112.1,77L112.1,77z M61,77h-1.1v-0.4c-0.1-0.7-0.2-1.4-0.4-2.1l-0.1-0.4
						c-0.1-0.3-0.1-0.6-0.2-0.9c-0.2-0.6-0.3-1.2-0.4-1.9c0-0.2,0-0.4,0-0.6s-0.1-0.5-0.1-0.8c-0.1-1.4-0.1-4.9,1.9-7.5
						c0.9-1.1,1.9-2,3.2-2.6c0.7-0.4,1.3-0.6,1.9-0.9c0.2-0.1,0.5-0.2,0.7-0.3c0.3-0.2,0.6-0.3,0.9-0.4c0.5-0.2,1-0.4,1.5-0.7
						c1.9-1,3.9-2.4,5.8-4.1c1.7-1.4,3.2-3.1,4.9-5.1c0.2-0.2,0.4-0.4,0.6-0.7l0.2-0.3c3-3.7,7-8.8,11.7-9.6c2.8-0.6,5.6,0.3,8,2.6
						l0,0l0,0l0,0h0.4V42l-1.1-1l0,0l0,0c-1.2-1.1-3.2-2.4-5.7-2.4c-0.2,0-0.4,0.1-0.7,0.1c-0.2,0-0.5,0-0.7,0.1
						c-4.1,0.7-7.7,5.1-10.9,8.9l-0.4,0.6c-0.2,0.2-0.2,0.3-0.3,0.4c-0.1,0.1-0.2,0.3-0.3,0.4c-1.8,2.2-3.4,3.8-4.9,5.1
						c-1.9,1.7-4.1,3.3-6,4.3c-1,0.6-1.8,0.9-2.6,1.2c-0.4,0.2-0.8,0.4-1.2,0.6c-0.4,0.2-0.8,0.4-1.2,0.6c-1.2,0.7-2.1,1.5-2.7,2.3
						c-1.7,2.2-1.9,4.9-1.8,6.9c0,0.2,0,0.4,0,0.6c0,0.2,0,0.4,0.1,0.6l0.6,2.6c0.2,0.8,0.4,1.6,0.5,2.6L61,77z"/>
				</g>
				<g>
					<path class="st1" d="M90.4,26.8c-6.5,1.4-12,8.5-16,13.7c-0.3,0.4-0.5,0.7-0.8,1c-2.4,3-4.4,5.4-6.5,7.3
						c-2.6,2.6-5.3,4.5-7.9,5.8c-1.3,0.6-2.7,1.1-3.9,1.6c-1.2,0.4-2.2,0.8-3.3,1.3c-1.8,0.9-3.3,1.9-4.4,3.3c-2.7,3.3-3,7.6-3,9.9
						c0,0.6,0,1.2,0.1,1.8c0.2,1.3,0.4,2.5,0.7,3.7c0,0.1,0,0.2,0,0.2h0.7c0-0.1,0-0.2-0.1-0.3c-0.2-1.2-0.5-2.5-0.7-3.7
						c-0.1-0.6-0.1-1.2-0.1-1.8c0-2.2,0.2-6.3,2.8-9.5c1.1-1.3,2.4-2.2,4.2-3.1c1.1-0.5,2.1-0.9,3.3-1.3c1.3-0.5,2.6-1,4-1.6
						c2.7-1.3,5.4-3.3,8.1-5.9c2-2,4.1-4.3,6.5-7.4c0.3-0.4,0.5-0.7,0.8-1c4-5,9.4-11.9,15.6-13.3c0.8-0.2,1.5-0.2,2.3-0.1
						c2.9,0,5.3,1.3,7,2.7v-0.9C97.6,27.4,94.4,25.9,90.4,26.8z M98.9,98c-3.7,2.1-6.9,4.9-10,7.5c0,0-0.1,0.1-0.2,0.1h0.9
						c3-2.5,6-5.1,9.5-7.1c0.2-0.1,0.5-0.3,0.7-0.4v-0.6C99.5,97.6,99.2,97.8,98.9,98z M123.7,58.1c-1-4.9-3.9-8.3-6.3-10.7
						c-1.2-1.2-2.4-2.3-3.7-3.4c-0.4-0.3-0.7-0.6-1.1-1h-1.1c0.6,0.6,1.2,1.1,1.8,1.6c1.2,1,2.5,2.2,3.7,3.3
						c2.4,2.3,5.2,5.6,6.1,10.3c1.1,5.8-0.9,12.3-4,18.2h0.6C122.8,70.6,124.8,64.1,123.7,58.1z"/>
				</g>
				<g>
					<path class="st1" d="M99.5,23.2c-1.6-1.6-3.4-2.6-5.2-3.3c-2.1-0.8-4.3-0.9-6.5-0.4c-3.1,0.7-6.2,2.6-9.4,5.8
						c-2.9,2.8-5.6,6.4-7.9,9.4c-0.3,0.4-0.6,0.8-0.9,1.2c-1,1.3-2,2.7-3.2,4.1v0.2c1.2-1.4,2.2-2.8,3.2-4.1
						c0.3-0.4,0.6-0.8,0.9-1.2c2.3-3.1,5-6.5,7.9-9.4c3.3-3.2,6.3-5,9.4-5.7c0.8-0.2,1.7-0.3,2.6-0.3c1.3,0,2.6,0.2,3.9,0.7
						c1.8,0.6,3.6,1.8,5.2,3.3c0.1,0.1,0.3,0.2,0.4,0.4v-0.2C99.8,23.5,99.6,23.3,99.5,23.2z M62.6,44.2c-2.9,3-5.9,5.2-8.8,6.5
						c-1.6,0.7-3.2,1.2-4.7,1.7c-1.3,0.4-2.4,0.8-3.6,1.3c-2.1,0.9-3.7,1.9-5,3.4c-2,2.4-2.9,5.2-3.2,7.5v0.6c0.3-2.5,1.1-5.5,3.3-8
						c1.3-1.5,2.9-2.5,4.9-3.4c1.2-0.5,2.3-0.9,3.6-1.2c1.5-0.5,3.1-1,4.7-1.7c2.9-1.3,5.9-3.6,8.8-6.5c0.4-0.4,0.8-0.8,1.2-1.3
						h-0.2C63.3,43.5,62.9,43.8,62.6,44.2z"/>
				</g>
				<g>
					<path class="st1" d="M127.1,55.8c-1.2-5.8-4.7-9.8-7.6-12.7h-0.2c2.9,2.9,6.4,6.8,7.6,12.6c1,5,0.2,10.9-2.3,17.4
						c-0.5,1.1-0.9,2.3-1.5,3.4c0.1,0,0.1,0,0.2,0c0.5-1.1,1-2.2,1.5-3.3C127.3,66.6,128.1,60.8,127.1,55.8z"/>
				</g>
				<g>
					<path class="st1" d="M99.1,17.2L99.1,17.2l0.1,0.1C99.2,17.2,99.2,17.2,99.1,17.2z"/>
				</g>
				<g>
					<path class="st1" d="M75.5,13.9c-0.9,0.8-1.8,1.6-2.8,2.6c-2.2,2.2-4.3,4.7-6.3,7.2v0.1c2-2.5,4.1-5.1,6.4-7.3
						c1-0.9,1.9-1.8,2.8-2.6C75.6,13.9,75.5,13.9,75.5,13.9z M50.9,43.1c-3.3,3.3-6.6,5.6-9.9,7c-1.2,0.5-2.5,1-3.7,1.4v0.1
						c1.3-0.4,2.5-0.8,3.8-1.4c3.3-1.5,6.6-3.8,10-7.1H50.9z"/>
				</g>
			</g>
		</g>
	</g>
	<g>
		<path class="st0" d="M152.9,65.8c0.5,2.3,1.3,4,2.4,5.1c1.1,1.1,2.8,1.7,4.9,1.7c1.1,0,2.1-0.2,3-0.6c0.9-0.4,1.6-1,2.2-1.8
			c0.5-0.9,0.8-1.9,0.8-3.2c0-1.2-0.2-2.2-0.7-3.1c-0.4-0.9-1.1-1.7-2.1-2.5c-1-0.8-2.3-1.6-4.1-2.5c-1.5-0.7-2.8-1.5-4-2.3
			c-1.2-0.8-2.2-1.7-3.1-2.7s-1.5-2-2-3.2c-0.5-1.1-0.7-2.4-0.7-3.9c0-2.4,0.6-4.4,1.8-6c1.2-1.6,2.9-2.9,5.1-3.7
			c2.2-0.9,4.8-1.3,7.7-1.3c1.7,0,3.3,0.1,4.9,0.3c1.5,0.2,3.3,0.5,5.3,1v8.3h-3.9c-0.4-1.5-0.8-2.7-1.4-3.6c-0.6-0.9-1.3-1.5-2.1-2
			c-0.8-0.4-1.9-0.6-3.2-0.6c-1.1,0-2.1,0.2-2.9,0.6c-0.9,0.4-1.5,1-2,1.7c-0.5,0.8-0.7,1.7-0.7,2.7c0,1.1,0.2,2.1,0.6,2.9
			c0.4,0.8,1.2,1.6,2.2,2.4c1,0.8,2.5,1.7,4.4,2.7c2.4,1.2,4.2,2.4,5.6,3.6c1.3,1.2,2.3,2.5,3,3.8c0.6,1.4,1,3,1,4.8
			c0,2.4-0.5,4.4-1.6,6.1c-1.1,1.7-2.7,3.1-4.8,4c-2.1,0.9-4.5,1.4-7.2,1.4c-2,0-4-0.1-6.1-0.3c-2.1-0.2-4.1-0.5-6-1v-8.8H152.9z"/>
		<path class="st0" d="M223.3,46.2c0.3-0.9,0.5-1.8,0.7-2.7c0.2-0.9,0.3-1.6,0.3-2.3c0-1-0.2-1.7-0.7-2.2c-0.5-0.5-1.2-0.7-2.2-0.8
			v-1.9h12v1.9c-0.7,0.2-1.3,0.4-1.8,0.8c-0.5,0.4-0.9,0.9-1.3,1.6c-0.4,0.7-0.9,1.9-1.4,3.6l-10.8,31.4h-6.8l-6.5-26.9l-7.7,26.9
			h-7.2l-8.6-32.1c-0.4-1.6-0.8-2.7-1.1-3.3c-0.3-0.6-0.7-1.1-1.1-1.4c-0.4-0.3-0.9-0.5-1.5-0.7v-1.9H193v1.9
			c-1,0.1-1.7,0.4-2.2,0.8c-0.5,0.4-0.7,1.1-0.7,1.9c0,1,0.3,2.6,0.8,4.7l5,19.9l8.2-29.3h6.5l6.7,29.3L223.3,46.2z"/>
		<path class="st0" d="M248,68.3c0,0.7,0,1.3,0.1,1.9c0,0.6,0.1,1,0.2,1.4c0.1,0.4,0.3,0.7,0.5,0.9c0.2,0.2,0.5,0.5,0.9,0.6
			c0.4,0.2,0.9,0.3,1.4,0.5v1.9H236v-1.9c0.7-0.2,1.3-0.4,1.7-0.6s0.7-0.5,0.9-0.9c0.2-0.4,0.3-0.9,0.4-1.5c0.1-0.6,0.1-1.4,0.1-2.3
			V43.5c0-0.9,0-1.7-0.1-2.3c0-0.6-0.2-1.1-0.4-1.5c-0.2-0.4-0.5-0.7-0.9-0.9c-0.4-0.2-1-0.4-1.7-0.6v-1.9h15.1v1.9
			c-0.8,0.2-1.4,0.4-1.7,0.7c-0.4,0.2-0.7,0.5-0.8,0.9c-0.2,0.3-0.3,0.8-0.4,1.3c-0.1,0.6-0.1,1.4-0.1,2.4V68.3z"/>
		<path class="st0" d="M260.1,65.8c0.5,2.3,1.3,4,2.4,5.1c1.1,1.1,2.8,1.7,4.9,1.7c1.1,0,2.1-0.2,3-0.6c0.9-0.4,1.6-1,2.2-1.8
			c0.5-0.9,0.8-1.9,0.8-3.2c0-1.2-0.2-2.2-0.7-3.1c-0.4-0.9-1.1-1.7-2.1-2.5s-2.3-1.6-4.1-2.5c-1.5-0.7-2.8-1.5-4-2.3
			c-1.2-0.8-2.2-1.7-3.1-2.7c-0.9-1-1.5-2-2-3.2c-0.5-1.1-0.7-2.4-0.7-3.9c0-2.4,0.6-4.4,1.8-6c1.2-1.6,2.9-2.9,5.1-3.7
			c2.2-0.9,4.8-1.3,7.7-1.3c1.7,0,3.3,0.1,4.9,0.3s3.3,0.5,5.3,1v8.3h-3.9c-0.4-1.5-0.8-2.7-1.4-3.6c-0.6-0.9-1.3-1.5-2.1-2
			c-0.8-0.4-1.9-0.6-3.2-0.6c-1.1,0-2.1,0.2-2.9,0.6s-1.5,1-2,1.7c-0.5,0.8-0.7,1.7-0.7,2.7c0,1.1,0.2,2.1,0.6,2.9
			c0.4,0.8,1.2,1.6,2.2,2.4c1,0.8,2.5,1.7,4.4,2.7c2.4,1.2,4.2,2.4,5.6,3.6c1.3,1.2,2.3,2.5,3,3.8s1,3,1,4.8c0,2.4-0.5,4.4-1.6,6.1
			c-1.1,1.7-2.7,3.1-4.8,4c-2.1,0.9-4.5,1.4-7.2,1.4c-2,0-4-0.1-6.1-0.3c-2.1-0.2-4.1-0.5-6-1v-8.8H260.1z"/>
		<path class="st0" d="M290.3,65.8c0.5,2.3,1.3,4,2.4,5.1c1.1,1.1,2.8,1.7,4.9,1.7c1.1,0,2.1-0.2,3-0.6c0.9-0.4,1.6-1,2.2-1.8
			c0.5-0.9,0.8-1.9,0.8-3.2c0-1.2-0.2-2.2-0.7-3.1c-0.4-0.9-1.1-1.7-2.1-2.5s-2.3-1.6-4.1-2.5c-1.5-0.7-2.8-1.5-4-2.3
			c-1.2-0.8-2.2-1.7-3.1-2.7s-1.5-2-2-3.2s-0.7-2.4-0.7-3.9c0-2.4,0.6-4.4,1.8-6c1.2-1.6,2.9-2.9,5.1-3.7c2.2-0.9,4.8-1.3,7.7-1.3
			c1.7,0,3.3,0.1,4.9,0.3c1.5,0.2,3.3,0.5,5.3,1v8.3h-3.9c-0.4-1.5-0.8-2.7-1.4-3.6c-0.6-0.9-1.3-1.5-2.1-2
			c-0.8-0.4-1.9-0.6-3.2-0.6c-1.1,0-2.1,0.2-2.9,0.6c-0.9,0.4-1.5,1-2,1.7c-0.5,0.8-0.7,1.7-0.7,2.7c0,1.1,0.2,2.1,0.6,2.9
			c0.4,0.8,1.2,1.6,2.2,2.4c1,0.8,2.5,1.7,4.4,2.7c2.4,1.2,4.2,2.4,5.6,3.6c1.3,1.2,2.3,2.5,3,3.8c0.6,1.4,1,3,1,4.8
			c0,2.4-0.5,4.4-1.6,6.1c-1.1,1.7-2.7,3.1-4.8,4c-2.1,0.9-4.5,1.4-7.2,1.4c-2,0-4-0.1-6.1-0.3s-4.1-0.5-6-1v-8.8H290.3z"/>
		<path class="st0" d="M331.9,75.5h-15.1v-1.9c0.7-0.2,1.3-0.4,1.7-0.6c0.4-0.2,0.7-0.5,0.9-0.9c0.2-0.4,0.3-0.9,0.4-1.5
			c0.1-0.6,0.1-1.4,0.1-2.3V43.6c0-0.9,0-1.7-0.1-2.3c0-0.6-0.2-1.1-0.4-1.5s-0.5-0.7-0.9-0.9s-1-0.5-1.7-0.6v-1.9h16.7
			c2.3,0,4.2,0.2,5.8,0.5c1.6,0.3,3,0.8,4.1,1.4c1,0.5,1.8,1.2,2.5,2c0.7,0.8,1.2,1.8,1.6,2.8c0.4,1.1,0.6,2.3,0.6,3.8
			c0,1.9-0.3,3.5-1,4.8c-0.7,1.3-1.5,2.5-2.7,3.3c-1.1,0.9-2.6,1.7-4.5,2.5v0.3c1.4,0.6,2.6,1.4,3.5,2.5c0.9,1,1.8,2.3,2.5,3.9
			l1.8,3.9c0.8,1.7,1.6,3,2.4,3.9c0.8,0.9,1.7,1.4,2.8,1.6v1.9h-11c-1.1-1.5-2.4-3.8-3.8-6.8l-2.2-4.9c-0.7-1.5-1.2-2.5-1.7-3.1
			c-0.5-0.6-1-1-1.5-1.3s-1.3-0.3-2.3-0.3h-1.7v9.2c0,1.4,0.1,2.4,0.2,3s0.4,1,0.8,1.4c0.4,0.3,1.1,0.7,2.1,0.9V75.5z M328.8,39.7
			v16h2.8c1.5,0,2.8-0.2,3.8-0.6s1.8-1,2.4-1.7c0.6-0.7,1-1.6,1.2-2.6c0.2-1,0.3-2.1,0.3-3.3c0-2.6-0.6-4.6-1.8-5.9s-3-2-5.5-2
			C330.4,39.7,329.3,39.7,328.8,39.7z"/>
		<path class="st0" d="M371.6,76c-5.6,0-9.8-1.6-12.7-4.9c-2.8-3.3-4.2-8.2-4.2-14.8c0-4.3,0.7-8,2.1-11c1.4-3,3.4-5.4,6-7
			c2.7-1.6,5.8-2.4,9.5-2.4c5.7,0,10,1.6,12.9,4.9c2.9,3.3,4.3,8.2,4.3,14.6c0,3.6-0.4,6.7-1.3,9.3c-0.9,2.6-2.1,4.7-3.6,6.4
			c-1.6,1.7-3.4,2.9-5.6,3.7C376.7,75.6,374.3,76,371.6,76z M363.8,55.5c0,5.8,0.7,10.1,2.1,12.9s3.5,4.2,6.4,4.2
			c1.5,0,2.7-0.4,3.8-1.2c1-0.8,1.9-1.9,2.5-3.3s1.1-3.1,1.4-5.1c0.3-2,0.4-4.1,0.4-6.4c0-3.8-0.3-7-0.9-9.6s-1.5-4.5-2.7-5.8
			c-1.2-1.3-2.8-2-4.7-2c-2.8,0-4.8,1.3-6.2,4C364.5,45.9,363.8,49.9,363.8,55.5z"/>
		<path class="st0" d="M413.5,63.4h-12.2l-0.9,2.7c-0.3,0.8-0.5,1.5-0.7,2.2c-0.2,0.7-0.3,1.5-0.3,2.3c0,1.9,1,2.9,3,3v1.9h-12.2
			v-1.9c0.7-0.1,1.3-0.3,1.9-0.7c0.5-0.4,1-1,1.5-1.7c0.4-0.7,0.9-1.8,1.4-3.1l12-31.9h7.7l9.5,32.1c0.4,1.4,0.8,2.5,1.1,3.1
			s0.7,1.1,1.1,1.5s1.1,0.6,1.9,0.8v1.9h-15.8v-1.9c1-0.1,1.7-0.4,2.2-0.8c0.5-0.4,0.7-1.1,0.7-1.9c0-0.6-0.1-1.3-0.2-2
			c-0.1-0.7-0.4-1.6-0.7-2.8L413.5,63.4z M402.3,60h10.3L408,43.9L402.3,60z"/>
		<path class="st0" d="M446.3,36.3c3.2,0,5.9,0.2,8,0.7c2.1,0.5,4,1.3,5.7,2.4s3,2.3,4,3.8c1,1.5,1.8,3.2,2.3,5.2
			c0.5,2,0.7,4.2,0.7,6.6c0,3-0.3,5.7-1,8c-0.7,2.4-1.7,4.4-3.1,6.1c-1.2,1.5-2.8,2.8-4.6,3.7s-3.9,1.7-6.2,2.1
			c-2,0.3-4.6,0.5-7.7,0.5h-13v-1.9c0.7-0.2,1.3-0.4,1.7-0.6c0.4-0.2,0.7-0.5,0.9-0.9c0.2-0.4,0.3-0.9,0.4-1.5
			c0.1-0.6,0.1-1.4,0.1-2.3V43.6c0-0.9,0-1.7-0.1-2.3c0-0.6-0.2-1.1-0.4-1.5s-0.5-0.7-0.9-0.9s-1-0.5-1.7-0.6v-1.9H446.3z M443.3,72
			c0.3,0.1,1.2,0.1,2.6,0.1c2.1,0,3.9-0.3,5.3-0.9c1.1-0.5,2-1.1,2.7-1.9c1.2-1.3,2.2-3,2.8-5.1c0.7-2.3,1-5.1,1-8.4
			c0-3.6-0.5-6.7-1.5-9.1s-2.3-4.2-4.1-5.3c-1.8-1.1-3.9-1.7-6.4-1.7c-1.2,0-2,0-2.6,0.1V72z"/>
	</g>
</g>
</svg>
