<?xml version="1.0" encoding="utf-8"?>
<!-- Generator: Adobe Illustrator 26.0.1, SVG Export Plug-In . SVG Version: 6.00 Build 0)  -->
<svg version="1.1" id="Layer_1" xmlns="http://www.w3.org/2000/svg" xmlns:xlink="http://www.w3.org/1999/xlink" x="0px" y="0px"
	 viewBox="0 0 16 16" style="enable-background:new 0 0 16 16;" xml:space="preserve">
<style type="text/css">
	.st0{fill:#065293;}
	.st1{fill:#FFFFFF;}
</style>
<g>
	<path class="st0" d="M13.8,16H2.2C1,16,0,15,0,13.8L0,2.2C0,1,1,0,2.2,0l11.6,0C15,0,16,1,16,2.2v11.6C16,15,15,16,13.8,16z"/>
	<g>
		<g>
			<path class="st1" d="M14.5,6.6v2.8c0,0.3-0.1,0.5-0.3,0.7c0,0,0,0,0,0c-0.1,0.1-0.3,0.1-0.4,0.2c0,0,0,0,0,0c0,0,0,0,0,0h-3.2
				v3.1c0,0,0,0.1,0,0.1c0,0,0,0,0,0c-0.1,0.4-0.4,0.7-0.9,0.7h-3c-0.4,0-0.7-0.3-0.8-0.6c0,0,0,0,0,0c0-0.1,0-0.1,0-0.2v-3.1H2.4
				c-0.5,0-0.9-0.4-0.9-0.8V6.6c0,0,0,0,0,0c0,0,0-0.1,0-0.1c0.1-0.4,0.4-0.7,0.9-0.7h3.2V2.7c0-0.2,0.1-0.4,0.2-0.5c0,0,0,0,0,0
				c0,0,0-0.1,0.1-0.1c0,0,0,0,0,0c0.2-0.1,0.4-0.2,0.6-0.2h3c0.3,0,0.6,0.2,0.8,0.4c0,0,0,0,0,0v0c0.1,0.1,0.1,0.3,0.1,0.4v3.1h3.2
				c0.1,0,0.1,0,0.1,0c0,0,0,0,0,0C14.2,5.8,14.5,6.2,14.5,6.6z"/>
			<g>
				<path class="st0" d="M10.5,9.8L10.5,9.8c-0.1,0.1-0.2,0.1-0.3,0.2c-0.2,0.1-0.3,0.2-0.5,0.3c-0.1,0.1-0.2,0.1-0.3,0.1
					c0,0,0,0,0,0c0,0-0.1,0-0.1,0c0.1,0,0.1,0,0.2,0c0,0,0,0,0,0c0.1,0,0.2-0.1,0.3-0.1c0.2-0.1,0.3-0.2,0.5-0.3
					C10.2,9.9,10.3,9.9,10.5,9.8L10.5,9.8c0.1,0,0.2-0.1,0.2-0.1C10.6,9.7,10.6,9.8,10.5,9.8z M10.8,9.4c0-0.1-0.1-0.3-0.2-0.4
					c0,0-0.1-0.1-0.1-0.1c-0.1-0.1-0.2-0.2-0.2-0.2c0,0,0-0.1-0.1-0.1C10.1,8.4,10,8.3,9.9,8.2c-0.2,0-0.3,0.1-0.4,0.1
					C9.4,8.4,9.2,8.5,9.1,8.5c-0.1,0-0.2,0-0.2,0c0,0-0.1,0-0.1,0c-0.1,0-0.2,0-0.3,0.1c-0.1,0.1-0.1,0.2,0,0.3
					c0.1,0.2,0.1,0.4,0.2,0.6c0,0.1,0.1,0.1,0.1,0.1C8.9,9.8,8.9,9.9,9,10c0,0,0,0.1,0,0.1c0,0.1,0,0.1,0,0.1c0,0,0,0,0,0
					c0,0,0,0,0,0c0-0.1,0-0.1,0-0.1c0,0,0-0.1,0-0.1c0-0.1-0.1-0.2-0.2-0.3c0,0-0.1-0.1-0.1-0.1C8.6,9.4,8.5,9.2,8.5,8.9
					c0-0.1-0.1-0.2,0-0.3c0.1-0.1,0.2-0.1,0.3-0.1c0,0,0.1,0,0.1,0c0.1,0,0.2,0,0.2,0c0.1,0,0.2-0.1,0.3-0.1
					c0.1-0.1,0.3-0.2,0.4-0.1c0.1,0,0.2,0.2,0.3,0.3c0,0,0,0.1,0.1,0.1c0.1,0.1,0.2,0.2,0.2,0.2c0,0,0.1,0.1,0.1,0.1
					C10.7,9.1,10.8,9.3,10.8,9.4c0,0.1,0,0.2-0.1,0.2C10.8,9.6,10.8,9.5,10.8,9.4z"/>
				<path class="st0" d="M11.7,9c-0.1-0.4-0.3-0.6-0.5-0.8L11,8c-0.1-0.1-0.3-0.3-0.4-0.4c-0.1-0.1-0.1-0.1-0.2-0.2
					c-0.1-0.1-0.2-0.2-0.3-0.3C10,6.8,9.8,6.7,9.5,6.7C9.2,6.8,8.9,7,8.6,7.2C8.5,7.3,8.4,7.4,8.3,7.5c0,0,0,0-0.1,0
					C8.1,7.6,7.9,7.7,7.8,7.8l-0.1,0C7.5,7.9,7.3,8,7.1,8.1C6.9,8.3,6.8,8.4,6.7,8.5C6.7,8.6,6.7,8.8,6.6,8.9c-0.1,0.2,0,0.5,0,0.8
					c0,0,0,0.1,0.1,0.1c0,0.1,0.1,0.1,0.1,0.2C6.9,10.1,7,10.3,7,10.5c0,0.1,0,0.1,0,0.2c0,0.1,0,0.1,0,0.2c0,0.2,0,0.3,0.1,0.5
					c0.1,0.1,0.2,0.2,0.4,0.4C7.6,11.8,7.9,12,8.2,12c0,0,0.1,0,0.1,0c0.3,0,0.6-0.1,0.8-0.3c0.2-0.1,0.3-0.2,0.4-0.3
					c0.2-0.1,0.3-0.2,0.5-0.4c0,0,0.1,0,0.1-0.1c0,0,0.1-0.1,0.1-0.1v-0.2c-0.1,0-0.1,0.1-0.2,0.1c-0.1,0-0.1,0-0.1,0.1
					c-0.2,0.1-0.4,0.2-0.6,0.4c-0.1,0.1-0.3,0.2-0.4,0.3c-0.2,0.1-0.5,0.3-0.8,0.2c-0.3,0-0.5-0.2-0.7-0.3c-0.2-0.1-0.3-0.2-0.3-0.3
					c-0.1-0.1-0.1-0.2-0.1-0.4c0-0.1,0-0.1,0-0.2c0-0.1,0-0.1,0-0.2c0-0.2-0.1-0.4-0.2-0.6c0-0.1-0.1-0.1-0.1-0.2c0,0,0-0.1,0-0.1
					c-0.1-0.2-0.1-0.5,0-0.7c0-0.1,0.1-0.2,0.1-0.3C7,8.5,7.1,8.3,7.2,8.2C7.4,8.1,7.6,8,7.8,7.9l0.1,0C8,7.8,8.2,7.8,8.3,7.7
					c0,0,0.1,0,0.1,0c0.1-0.1,0.2-0.2,0.3-0.2C9,7.2,9.2,6.9,9.5,6.9c0,0,0,0,0,0c0.2,0,0.3,0.1,0.5,0.2c0.1,0.1,0.2,0.2,0.2,0.3
					c0.1,0.1,0.1,0.1,0.2,0.2c0.1,0.2,0.3,0.3,0.4,0.4C11,8.1,11,8.2,11.1,8.3c0.2,0.2,0.4,0.5,0.4,0.7c0.1,0.5-0.2,0.9-0.6,1.3h0.3
					C11.5,9.9,11.8,9.5,11.7,9z"/>
				<path class="st0" d="M10.3,5.4C10.1,5.2,9.7,5,9.3,5.1C8.6,5.2,8.1,5.8,7.6,6.3l0,0c0,0-0.1,0.1-0.1,0.1C7.3,6.8,7.1,7,6.8,7.2
					C6.6,7.4,6.3,7.6,6,7.7C5.9,7.8,5.7,7.8,5.6,7.9C5.5,7.9,5.4,8,5.3,8.1C5.1,8.1,5,8.2,4.9,8.4c-0.3,0.3-0.3,0.8-0.3,1
					c0,0.1,0,0.1,0,0.2c0,0.1,0.1,0.2,0.1,0.4c0,0.1,0.1,0.2,0.1,0.4h0c0-0.1,0-0.2-0.1-0.3c0-0.1-0.1-0.2-0.1-0.4
					c0-0.1,0-0.1,0-0.2c0-0.2,0-0.6,0.3-1C5,8.3,5.1,8.2,5.3,8.1C5.4,8,5.5,8,5.6,7.9c0.1,0,0.2-0.1,0.4-0.2
					c0.3-0.1,0.6-0.3,0.8-0.6C7.1,7,7.3,6.8,7.5,6.5c0,0,0.1-0.1,0.1-0.1l0,0c0.5-0.5,1-1.2,1.6-1.3c0.1,0,0.1,0,0.2,0
					C9.9,5.1,10.1,5.3,10.3,5.4C10.3,5.4,10.4,5.5,10.3,5.4L10.3,5.4C10.4,5.4,10.3,5.4,10.3,5.4z M12.6,8.2c-0.1-0.5-0.4-0.8-0.7-1
					c-0.1-0.1-0.2-0.2-0.4-0.3c-0.2-0.2-0.4-0.3-0.6-0.5C11,6.2,10.9,6,10.8,5.9c0-0.1-0.1-0.1-0.1-0.2h0c0,0.1,0.1,0.1,0.1,0.2
					C10.9,6,11,6.2,11.1,6.3c0.2,0.2,0.4,0.4,0.6,0.5C11.7,6.9,11.9,7,12,7.1C12.2,7.4,12.5,7.7,12.6,8.2c0.1,0.4,0,0.9-0.2,1.4
					c-0.1,0.2-0.2,0.5-0.4,0.7h0c0.2-0.2,0.3-0.5,0.4-0.7C12.7,9,12.7,8.6,12.6,8.2z M10.4,11.9c-0.1,0-0.1,0.1-0.2,0.1
					c-0.4,0.2-0.7,0.5-1,0.7l-0.6,0.5c-0.4,0.3-0.9,0.5-1.5,0.4c-0.5-0.1-0.9-0.4-1.4-0.7v0c0.4,0.3,0.8,0.6,1.3,0.7
					c0.1,0,0.2,0,0.3,0c0.2,0,0.3,0,0.5-0.1c0.2-0.1,0.4-0.2,0.7-0.3c0.2-0.1,0.4-0.3,0.6-0.5c0.3-0.2,0.6-0.5,1-0.7
					C10.2,12,10.3,11.9,10.4,11.9C10.4,11.9,10.4,11.9,10.4,11.9L10.4,11.9C10.4,11.9,10.4,11.9,10.4,11.9z"/>
				<path class="st0" d="M9,3.6C8.1,3.7,7.3,4.7,6.8,5.4c0,0.1-0.1,0.1-0.1,0.1C6.3,5.9,6,6.3,5.7,6.5C5.4,6.9,5,7.1,4.6,7.3
					C4.4,7.4,4.2,7.4,4,7.5C3.9,7.6,3.7,7.6,3.6,7.7C3.3,7.8,3.1,7.9,3,8.1c-0.4,0.4-0.4,1-0.4,1.3c0,0.1,0,0.2,0,0.2
					c0,0.2,0.1,0.3,0.1,0.5c0,0,0,0,0,0h0.1c0,0,0,0,0,0c0-0.2-0.1-0.3-0.1-0.5c0-0.1,0-0.2,0-0.2c0-0.3,0-0.8,0.4-1.3
					C3.2,8,3.4,7.9,3.6,7.8c0.2-0.1,0.3-0.1,0.5-0.2c0.2-0.1,0.4-0.1,0.6-0.2C5,7.2,5.4,6.9,5.8,6.6c0.3-0.3,0.6-0.6,0.9-1
					c0-0.1,0.1-0.1,0.1-0.1C7.4,4.8,8.2,3.8,9,3.7c0.1,0,0.2,0,0.3,0c0.4,0,0.7,0.2,1,0.4V3.9C10,3.6,9.6,3.4,9,3.6z M10.2,13.1
					c-0.5,0.3-1,0.7-1.4,1c0,0,0,0,0,0h0.1C9.3,13.8,9.8,13.5,10.2,13.1c0.1,0,0.1,0,0.1,0v-0.1C10.3,13.1,10.3,13.1,10.2,13.1z
					 M13.7,7.8c-0.1-0.7-0.5-1.1-0.9-1.4c-0.2-0.2-0.3-0.3-0.5-0.5c-0.1,0-0.1-0.1-0.2-0.1H12c0.1,0.1,0.2,0.1,0.3,0.2
					c0.2,0.1,0.4,0.3,0.5,0.4C13.1,6.7,13.5,7.2,13.7,7.8c0.1,0.8-0.2,1.7-0.6,2.5h0.1C13.6,9.5,13.9,8.6,13.7,7.8z"/>
				<path class="st0" d="M10.3,3.1c-0.2-0.2-0.5-0.4-0.7-0.4C9.3,2.5,9,2.5,8.7,2.6C8.2,2.7,7.8,2.9,7.3,3.4
					C6.9,3.7,6.5,4.2,6.2,4.6c0,0.1-0.1,0.1-0.1,0.2C5.9,4.9,5.8,5.1,5.6,5.3v0C5.8,5.2,6,5,6.1,4.8c0-0.1,0.1-0.1,0.1-0.2
					c0.3-0.4,0.7-0.9,1.1-1.3c0.5-0.4,0.9-0.7,1.3-0.8c0.1,0,0.2,0,0.4,0c0.2,0,0.4,0,0.6,0.1C9.8,2.7,10.1,2.9,10.3,3.1
					C10.3,3.1,10.4,3.1,10.3,3.1L10.3,3.1C10.4,3.1,10.3,3.1,10.3,3.1z M5.1,5.9C4.7,6.3,4.3,6.6,3.8,6.8C3.6,6.9,3.4,6.9,3.2,7
					C3,7.1,2.8,7.1,2.7,7.2C2.4,7.3,2.2,7.4,2,7.6C1.7,8,1.6,8.3,1.5,8.7v0.1C1.6,8.4,1.7,8,2,7.7c0.2-0.2,0.4-0.3,0.7-0.5
					C2.8,7.1,3,7.1,3.2,7C3.4,7,3.6,6.9,3.8,6.8C4.3,6.6,4.7,6.3,5.1,5.9c0.1,0,0.1-0.1,0.2-0.2h0C5.2,5.8,5.1,5.9,5.1,5.9z"/>
				<path class="st0" d="M14.2,7.5c-0.2-0.8-0.7-1.3-1.1-1.7h0C13.5,6.1,14,6.7,14.2,7.5c0.1,0.7,0,1.5-0.4,2.3
					c-0.1,0.2-0.1,0.3-0.2,0.5c0,0,0,0,0,0c0.1-0.2,0.1-0.3,0.2-0.4C14.3,8.9,14.4,8.1,14.2,7.5z"/>
				<path class="st0" d="M10.3,2.3L10.3,2.3C10.3,2.3,10.3,2.3,10.3,2.3C10.3,2.3,10.3,2.3,10.3,2.3z"/>
				<path class="st0" d="M6.9,1.8C6.8,1.9,6.7,2,6.5,2.2c-0.3,0.3-0.6,0.6-0.9,1v0c0.3-0.3,0.6-0.7,0.9-1C6.7,2.1,6.8,1.9,6.9,1.8
					L6.9,1.8z M3.4,5.8C3,6.2,2.5,6.5,2,6.7C1.9,6.8,1.7,6.8,1.5,6.9v0C1.7,6.8,1.9,6.8,2,6.7C2.5,6.5,3,6.2,3.4,5.8L3.4,5.8z"/>
			</g>
		</g>
	</g>
</g>
</svg>
