<?xml version="1.0" encoding="utf-8"?>
<!-- Generator: Adobe Illustrator 26.0.1, SVG Export Plug-In . SVG Version: 6.00 Build 0)  -->
<svg version="1.1" id="Layer_1" xmlns="http://www.w3.org/2000/svg" xmlns:xlink="http://www.w3.org/1999/xlink" x="0px" y="0px"
	 viewBox="0 0 62.5 57.9" style="enable-background:new 0 0 62.5 57.9;" xml:space="preserve">
<style type="text/css">
	.st0{fill:#55B1F7;}
	.st1{opacity:0.9;fill:#2B8DFE;}
	.st2{fill:#1A70FE;}
	.st3{fill:none;}
</style>
<g>
	<g>
		<path class="st0" d="M37.9,38.6L26.8,49.7c-1.5-1.1-3-2.2-4.5-3.5c-4.5-3.8-8.4-8-11.7-12.7l11-11c0,0.1,0,0.2,0.1,0.2
			c2.9,7.7,8.2,12.9,15.8,15.8C37.6,38.7,37.8,38.7,37.9,38.6z"/>
		<path class="st1" d="M25.9,18.2l-2.1,2.1c-0.6,0.6-1.3,1.1-1.9,1.6c-0.2,0.2-0.3,0.3-0.3,0.6l-11,11c-1.2-1.7-2.3-3.5-3.4-5.4
			C5.3,24.7,3.8,21,3,17.1c-0.1-0.6-0.2-1.3-0.3-1.9c-0.1-0.7,0.2-1.3,0.5-1.9c1.6-2.9,3.7-5.5,5.9-8c1.3-1.5,2.7-2.9,4.3-4.1
			c2-1.5,3.9-0.8,5,0.7c2.8,3.8,5.5,7.8,7.4,12.2C26.6,16,26.7,17.1,25.9,18.2z"/>
		<path class="st1" d="M25.9,18.2c-0.3,0.4-0.7,0.8-1.2,1.3c-0.3,0.3-0.6,0.5-0.9,0.8L25.9,18.2z"/>
		<path class="st2" d="M42.4,34.1l-3.7,3.7c0.8-0.9,1.6-1.8,2.4-2.7C41.5,34.6,42,34.3,42.4,34.1z"/>
	</g>
	<path class="st2" d="M59.4,45.9c-0.4,0.6-0.8,1.2-1.2,1.8c-3.3,3.7-7,6.8-11.3,9.2c-0.5,0.3-1,0.6-1.7,0.5
		c-2.5-0.2-4.9-0.9-7.2-1.7c-4-1.5-7.8-3.6-11.2-6l11.1-11.1c0.1,0,0.2-0.1,0.3-0.2c0.2-0.2,0.3-0.4,0.5-0.6l3.7-3.7
		c0.9-0.4,1.9-0.4,3,0c1.7,0.6,3.3,1.5,4.8,2.4c2.6,1.5,5.1,3.2,7.6,4.9c0.8,0.6,1.4,1.4,1.8,2.4C59.9,44.5,59.8,45.2,59.4,45.9z"/>
	<line class="st3" x1="38.7" y1="37.8" x2="37.9" y2="38.6"/>
	<line class="st3" x1="23.7" y1="20.3" x2="21.5" y2="22.5"/>
</g>
</svg>
