<?xml version="1.0" encoding="utf-8"?>
<!-- Generator: Adobe Illustrator 26.0.1, SVG Export Plug-In . SVG Version: 6.00 Build 0)  -->
<svg version="1.1" id="Layer_1" xmlns="http://www.w3.org/2000/svg" xmlns:xlink="http://www.w3.org/1999/xlink" x="0px" y="0px"
	 viewBox="0 0 62.5 57.9" style="enable-background:new 0 0 62.5 57.9;" xml:space="preserve">
<style type="text/css">
	.st0{fill:#1A70FE;}
	.st1{fill:#55B1F7;}
	.st2{opacity:0.6;}
	.st3{opacity:0.9;}
	.st4{fill:#2B8DFE;}
	.st5{fill:#F9FDFF;}
	.st6{opacity:0.9;fill:#2B8DFE;}
</style>
<g>
	<path class="st0" d="M49.5,11.7v34.6c0,2.3-1.9,4.2-4.2,4.2H15c-2.3,0-4.2-1.9-4.2-4.2V11.7c0-2.3,1.9-4.2,4.2-4.2h30.3
		c2.2,0,4,1.7,4.2,3.9C49.5,11.5,49.5,11.6,49.5,11.7z"/>
	<path class="st1" d="M41.2,50.5c-3.4,0-6.2-2.8-6.2-6.2v0H3.2v0c0,3.4,2.8,6.2,6.2,6.2H41.2z"/>
	<g>
		<g class="st2">
			<path d="M57.4,13.4L57.4,13.4c0,0.9-0.3,1.5-0.9,2.1c-0.1,0.1-0.2,0.2-0.3,0.3c-0.3,0.3-0.5,0.5-0.8,0.8L44.8,27.2
				c0,0-0.1,0.1-0.2,0.1c-0.1,0.1-0.1,0.1-0.2,0.1c-1.1,0.4-2.1,0.7-3.2,1.1c-0.7,0.2-1.5,0.5-2.2,0.7c0,0-0.1,0-0.1,0
				c-0.5,0.2-1,0.3-1.5,0.5c-0.4,0.1-0.8-0.1-0.8-0.5c0-0.1,0-0.3,0.1-0.4c0.7-2,1.3-3.9,2-5.9c0.1-0.4,0.3-0.8,0.5-1.1
				c0.2-0.3,0.5-0.6,0.8-0.9c3.2-3.2,6.4-6.3,9.5-9.5c0,0.1,0,0.2,0,0.3v3.1c0.6-0.6,1.2-1.2,1.8-1.8l0.8-0.8
				c0.3-0.3,0.6-0.6,0.8-0.8c0.4-0.4,0.8-0.6,1.2-0.7c0.5-0.2,1.1-0.2,1.6,0c0.3,0.3,0.6,0.6,0.8,0.8C57.1,12,57.4,12.6,57.4,13.4z"
				/>
			<path d="M54.3,16.1c0,0-0.1,0-0.1,0.1c-1.6,1.6-3.2,3.2-4.7,4.7c-1.6,1.6-3.2,3.2-4.9,4.9c0,0-0.1,0.1-0.1,0.1
				c-0.1,0.1-0.2,0.1-0.3,0c-1-1-1.9-1.9-2.9-2.9c-0.3-0.3-0.5-0.5-0.8-0.8c-0.1-0.1-0.1-0.2,0-0.3c1.3-1.3,2.6-2.6,3.9-3.9
				c1.7-1.7,3.4-3.4,5.1-5.1v1.8c0.6-0.6,1.2-1.2,1.8-1.8c0.3,0.3,0.5,0.5,0.8,0.8c0.7,0.7,1.4,1.5,2.2,2.2
				C54.3,16,54.3,16,54.3,16.1z"/>
			<path d="M55.8,14.6c-0.1,0.2-0.3,0.3-0.4,0.4c-0.1,0-0.1,0.1-0.1,0.1c-0.1,0.1-0.1,0.1-0.2,0c-1-1-2-2-3-3
				c0.3-0.3,0.6-0.6,0.8-0.8c0.4-0.4,0.8-0.6,1.2-0.7c0,0,0,0,0,0c0.3,0.3,0.7,0.7,1,1c0.2,0.2,0.4,0.4,0.6,0.6
				C56.4,12.9,56.4,13.9,55.8,14.6z"/>
			<path class="st3" d="M36.1,30.3c3-1,5.8-2,8.7-2.9c-1.9-1.9-3.9-3.9-5.8-5.8C38,24.5,37.1,27.4,36.1,30.3z"/>
		</g>
		<g>
			<g>
				<path class="st1" d="M59.4,14.9c0,0.8-0.3,1.5-0.9,2c-3,3-6,6-9,9c-0.9,0.9-1.8,1.8-2.7,2.7c0,0-0.1,0.1-0.2,0.1
					c-0.1,0.1-0.1,0.1-0.2,0.1c-1.1,0.4-2.1,0.7-3.2,1.1c-1.3,0.4-2.6,0.9-3.9,1.3c-0.4,0.1-0.8-0.1-0.8-0.5c0-0.1,0-0.3,0.1-0.4
					c0.1-0.3,0.2-0.6,0.3-1c0,0,0-0.1,0.1-0.1c0.5-1.6,1.1-3.2,1.6-4.8c0.1-0.3,0.2-0.6,0.3-0.8c0.1-0.1,0.1-0.2,0.2-0.3
					c0.1-0.1,0.1-0.2,0.2-0.3c0.2-0.2,0.3-0.4,0.6-0.7c2.5-2.5,5.1-5,7.6-7.6c0.6-0.6,1.2-1.2,1.8-1.8l0.8-0.8
					c0.3-0.3,0.6-0.6,0.8-0.8c0.4-0.4,0.8-0.6,1.2-0.7c0.5-0.2,1.1-0.2,1.6,0c0.4,0.1,0.9,0.4,1.2,0.7c0.5,0.5,1,1,1.6,1.6
					C59.1,13.5,59.4,14.1,59.4,14.9z"/>
				<path class="st1" d="M56.3,17.6c0-0.1,0-0.1-0.1-0.1c-1.3-1.3-2.5-2.5-3.8-3.8c-0.1-0.1-0.2,0-0.2,0c-1.9,1.9-3.9,3.9-5.8,5.8
					c-1.3,1.3-2.6,2.6-3.9,3.9c-0.1,0.1-0.1,0.2,0,0.3c1.2,1.2,2.5,2.5,3.7,3.7c0.1,0.1,0.2,0.1,0.3,0c3.2-3.2,6.5-6.5,9.7-9.7
					C56.2,17.6,56.3,17.6,56.3,17.6z"/>
				<path class="st1" d="M54.9,11.6c-0.4,0-0.8,0.1-1.1,0.4c-0.2,0.2-0.4,0.4-0.6,0.6c-0.1,0.1-0.1,0.1,0,0.2
					c1.3,1.3,2.5,2.5,3.8,3.8c0.1,0.1,0.1,0.1,0.2,0c0.2-0.2,0.4-0.4,0.6-0.6c0.6-0.7,0.6-1.6,0-2.3c-0.5-0.6-1.1-1.1-1.6-1.7
					C55.8,11.8,55.4,11.6,54.9,11.6z"/>
				<g class="st3">
					<path class="st4" d="M38.1,31.8c3-1,5.8-2,8.7-2.9C44.8,27,42.9,25,41,23.1C40,26,39,28.8,38.1,31.8z"/>
				</g>
			</g>
		</g>
	</g>
	<rect x="14.8" y="12.1" class="st5" width="20" height="5.3"/>
	<rect x="14.8" y="20.5" class="st6" width="14.4" height="2.3"/>
	<rect x="14.8" y="26" class="st6" width="10" height="2.3"/>
	<rect x="14.8" y="30.7" class="st6" width="16.9" height="2.3"/>
</g>
</svg>
