<?xml version="1.0" encoding="utf-8"?>
<!-- Generator: Adobe Illustrator 26.0.1, SVG Export Plug-In . SVG Version: 6.00 Build 0)  -->
<svg version="1.1" id="Layer_1" xmlns="http://www.w3.org/2000/svg" xmlns:xlink="http://www.w3.org/1999/xlink" x="0px" y="0px"
	 viewBox="0 0 62.5 57.9" style="enable-background:new 0 0 62.5 57.9;" xml:space="preserve">
<style type="text/css">
	.st0{fill:#55B1F7;}
	.st1{opacity:0.9;fill:#2B8DFE;}
	.st2{fill:#1A70FE;}
	.st3{fill:#FCFFFF;}
</style>
<g>
	<path class="st0" d="M57.3,45.2h-52C2.4,45.2,0,42.9,0,40V5.2C0,2.4,2.4,0,5.2,0h52c2.9,0,5.2,2.4,5.2,5.2V40
		C62.5,42.9,60.2,45.2,57.3,45.2z"/>
	<path class="st1" d="M53.8,41.7H8.7c-2.9,0-5.2-2.4-5.2-5.2V8.8c0-2.9,2.4-5.2,5.2-5.2h45.1c2.9,0,5.2,2.4,5.2,5.2v27.7
		C59.1,39.3,56.7,41.7,53.8,41.7z"/>
	<path class="st2" d="M57.4,45.2H5.1c-2.8,0-5.1-2.3-5.1-5.1l0-4.8h62.5v4.8C62.5,42.9,60.2,45.2,57.4,45.2z"/>
	<rect x="22.2" y="45.2" class="st2" width="18" height="9.6"/>
	<path class="st0" d="M46,57.9H16.6c-0.6,0-1.1-0.5-1.1-1.1v-2.1c0-0.6,0.5-1.1,1.1-1.1H46c0.6,0,1.1,0.5,1.1,1.1v2.1
		C47.1,57.4,46.6,57.9,46,57.9z"/>
	<g>
		<g>
			<path class="st3" d="M20.5,18.2c0.4-0.1,0.8-0.2,1.2-0.2c1-0.2,1.9-0.4,2.8-0.8c1.3-0.5,2.2-1.5,2.8-2.8c0.5-1.2,0.8-2.5,1-3.8
				c0-0.1,0-0.1,0.1-0.2c0.2,0.9,0.3,1.7,0.6,2.6c0.2,0.8,0.5,1.6,1,2.4c0.5,0.8,1.3,1.4,2.2,1.8c1.2,0.5,2.4,0.8,3.7,1
				c0.1,0,0.2,0,0.4,0.1c-0.9,0.2-1.8,0.3-2.6,0.6c-0.8,0.2-1.6,0.5-2.3,1c-0.9,0.5-1.4,1.3-1.8,2.2c-0.5,1.2-0.8,2.5-1,3.8
				c0,0.1,0,0.2-0.1,0.3c-0.1-0.3-0.1-0.5-0.2-0.8c-0.2-1.1-0.5-2.2-0.9-3.2c-0.5-1.3-1.5-2.3-2.8-2.8c-1.2-0.5-2.4-0.7-3.7-1
				C20.7,18.3,20.6,18.3,20.5,18.2C20.5,18.2,20.5,18.2,20.5,18.2z"/>
			<path class="st3" d="M37,31.6c-0.1-0.5-0.2-1-0.3-1.5c-0.1-0.6-0.3-1.1-0.6-1.6c-0.4-0.7-1.1-1.1-1.9-1.4
				c-0.7-0.2-1.4-0.4-2.2-0.5c0.3-0.1,0.7-0.1,1-0.2c0.6-0.1,1.1-0.3,1.6-0.5c0.9-0.4,1.5-1.2,1.8-2.1c0.2-0.6,0.3-1.3,0.5-1.9
				c0-0.1,0-0.1,0.1-0.2c0.1,0.6,0.2,1.1,0.4,1.6c0.2,0.6,0.4,1.3,0.8,1.8c0.4,0.5,1,0.8,1.7,1.1c0.6,0.2,1.3,0.3,1.9,0.5
				c0.1,0,0.1,0,0.2,0.1c-0.6,0.1-1.1,0.2-1.6,0.4c-0.5,0.1-1,0.3-1.4,0.6c-0.7,0.4-1.1,1.1-1.4,1.9C37.3,30,37.2,30.8,37,31.6z"/>
		</g>
	</g>
</g>
</svg>
